HIERARCHY
ROOT Hips
{
	OFFSET 0.101329 88.952194 2.917683
	CHANNELS 6 Xposition Yposition Zposition Zrotation Yrotation Xrotation 
	JOINT Spine
	{
		OFFSET 0.000000 8.814246 -2.080107
		CHANNELS 3 Zrotation Yrotation Xrotation
		JOINT Spine1
		{
			OFFSET -0.000000 8.844141 0.000000
			CHANNELS 3 Zrotation Yrotation Xrotation
			JOINT Spine2
			{
				OFFSET -0.000000 11.682268 -0.000000
				CHANNELS 3 Zrotation Yrotation Xrotation
				JOINT Spine3
				{
					OFFSET -0.000000 11.746700 -0.000000
					CHANNELS 3 Zrotation Yrotation Xrotation
					JOINT Neck
					{
						OFFSET 0.000000 17.658264 0.000000
						CHANNELS 3 Zrotation Yrotation Xrotation
						JOINT Neck1
						{
							OFFSET 0.000000 5.101515 -0.000000
							CHANNELS 3 Zrotation Yrotation Xrotation
							JOINT Head
							{
								OFFSET -0.000000 5.101515 -0.000000
								CHANNELS 3 Zrotation Yrotation Xrotation
								JOINT HeadEnd
								{
									OFFSET -0.000000 11.655085 -0.000000
									CHANNELS 3 Zrotation Yrotation Xrotation
									End Site
									{
										OFFSET 0.000000 0.000000 0.000000
									}
								}
							}
						}
					}
					JOINT RightShoulder
					{
						OFFSET -2.625389 11.175210 0.000000
						CHANNELS 3 Zrotation Yrotation Xrotation
						JOINT RightArm
						{
							OFFSET -0.000000 10.434715 0.000000
							CHANNELS 3 Zrotation Yrotation Xrotation
							JOINT RightForeArm
							{
								OFFSET -0.000000 29.628420 0.000000
								CHANNELS 3 Zrotation Yrotation Xrotation
								JOINT RightHand
								{
									OFFSET 0.000000 22.857611 -0.000000
									CHANNELS 3 Zrotation Yrotation Xrotation
									JOINT RightHandThumb1
									{
										OFFSET -2.867323 3.959563 2.944291
										CHANNELS 3 Zrotation Yrotation Xrotation
										JOINT RightHandThumb2
										{
											OFFSET 0.000000 3.350399 0.000000
											CHANNELS 3 Zrotation Yrotation Xrotation
											JOINT RightHandThumb3
											{
												OFFSET -0.000000 3.756509 0.000000
												CHANNELS 3 Zrotation Yrotation Xrotation
												JOINT RightHandThumb4
												{
													OFFSET -0.000000 3.147345 -0.000000
													CHANNELS 3 Zrotation Yrotation Xrotation
													End Site
													{
														OFFSET 0.000000 0.000000 0.000000
													}
												}
											}
										}
									}
									JOINT RightHandIndex1
									{
										OFFSET -0.086752 10.030893 2.345280
										CHANNELS 3 Zrotation Yrotation Xrotation
										JOINT RightHandIndex2
										{
											OFFSET 0.000000 4.061090 0.000000
											CHANNELS 3 Zrotation Yrotation Xrotation
											JOINT RightHandIndex3
											{
												OFFSET -0.000000 3.248873 0.000000
												CHANNELS 3 Zrotation Yrotation Xrotation
												JOINT RightHandIndex4
												{
													OFFSET 0.000000 2.639709 -0.000000
													CHANNELS 3 Zrotation Yrotation Xrotation
													End Site
													{
														OFFSET 0.000000 0.000000 0.000000
													}
												}
											}
										}
									}
									JOINT RightHandMiddle1
									{
										OFFSET 0.104102 9.502952 0.006768
										CHANNELS 3 Zrotation Yrotation Xrotation
										JOINT RightHandMiddle2
										{
											OFFSET -0.000000 4.568727 -0.000000
											CHANNELS 3 Zrotation Yrotation Xrotation
											JOINT RightHandMiddle3
											{
												OFFSET 0.000000 3.654981 -0.000000
												CHANNELS 3 Zrotation Yrotation Xrotation
												JOINT RightHandMiddle4
												{
													OFFSET 0.000000 2.741236 -0.000000
													CHANNELS 3 Zrotation Yrotation Xrotation
													End Site
													{
														OFFSET 0.000000 0.000000 0.000000
													}
												}
											}
										}
									}
									JOINT RightHandRing1
									{
										OFFSET 0.086752 8.921708 -2.267442
										CHANNELS 3 Zrotation Yrotation Xrotation
										JOINT RightHandRing2
										{
											OFFSET 0.000000 4.061090 -0.000000
											CHANNELS 3 Zrotation Yrotation Xrotation
											JOINT RightHandRing3
											{
												OFFSET 0.000000 3.654981 -0.000000
												CHANNELS 3 Zrotation Yrotation Xrotation
												JOINT RightHandRing4
												{
													OFFSET -0.000000 2.741236 0.000000
													CHANNELS 3 Zrotation Yrotation Xrotation
													End Site
													{
														OFFSET 0.000000 0.000000 0.000000
													}
												}
											}
										}
									}
									JOINT RightHandPinky1
									{
										OFFSET -0.173504 7.976997 -4.467199
										CHANNELS 3 Zrotation Yrotation Xrotation
										JOINT RightHandPinky2
										{
											OFFSET -0.000000 3.350399 0.000000
											CHANNELS 3 Zrotation Yrotation Xrotation
											JOINT RightHandPinky3
											{
												OFFSET 0.000000 2.842763 -0.000000
												CHANNELS 3 Zrotation Yrotation Xrotation
												JOINT RightHandPinky4
												{
													OFFSET 0.000000 2.639709 -0.000000
													CHANNELS 3 Zrotation Yrotation Xrotation
													End Site
													{
														OFFSET 0.000000 0.000000 0.000000
													}
												}
											}
										}
									}
									JOINT RightForeArmEnd
									{
										OFFSET 0.000000 0.000000 0.000000
										CHANNELS 3 Zrotation Yrotation Xrotation
										End Site
										{
											OFFSET 0.000000 0.000000 0.000000
										}
									}
								}
								JOINT RightArmEnd
								{
									OFFSET 0.000000 0.000000 0.000000
									CHANNELS 3 Zrotation Yrotation Xrotation
									End Site
									{
										OFFSET 0.000000 0.000000 0.000000
									}
								}
							}
						}
					}
					JOINT LeftShoulder
					{
						OFFSET 2.625389 11.175210 0.000000
						CHANNELS 3 Zrotation Yrotation Xrotation
						JOINT LeftArm
						{
							OFFSET 0.000000 10.813635 0.000000
							CHANNELS 3 Zrotation Yrotation Xrotation
							JOINT LeftForeArm
							{
								OFFSET 0.000000 28.724781 0.000000
								CHANNELS 3 Zrotation Yrotation Xrotation
								JOINT LeftHand
								{
									OFFSET 0.644384 25.716167 -0.328871
									CHANNELS 3 Zrotation Yrotation Xrotation
									JOINT LeftHandThumb1
									{
										OFFSET 2.867323 3.959563 2.944291
										CHANNELS 3 Zrotation Yrotation Xrotation
										JOINT LeftHandThumb2
										{
											OFFSET -0.000000 3.350399 -0.000000
											CHANNELS 3 Zrotation Yrotation Xrotation
											JOINT LeftHandThumb3
											{
												OFFSET -0.000000 3.756509 -0.000000
												CHANNELS 3 Zrotation Yrotation Xrotation
												JOINT LeftHandThumb4
												{
													OFFSET -0.000000 3.100000 -0.000000
													CHANNELS 3 Zrotation Yrotation Xrotation
													End Site
													{
														OFFSET 0.000000 0.000000 0.000000
													}
												}
											}
										}
									}
									JOINT LeftHandIndex1
									{
										OFFSET 0.086752 10.030893 2.345280
										CHANNELS 3 Zrotation Yrotation Xrotation
										JOINT LeftHandIndex2
										{
											OFFSET 0.000000 4.061090 -0.000000
											CHANNELS 3 Zrotation Yrotation Xrotation
											JOINT LeftHandIndex3
											{
												OFFSET 0.000000 3.248873 0.000000
												CHANNELS 3 Zrotation Yrotation Xrotation
												JOINT LeftHandIndex4
												{
													OFFSET 0.000000 2.639709 -0.000000
													CHANNELS 3 Zrotation Yrotation Xrotation
													End Site
													{
														OFFSET 0.000000 0.000000 0.000000
													}
												}
											}
										}
									}
									JOINT LeftHandMiddle1
									{
										OFFSET -0.104102 9.502952 0.006768
										CHANNELS 3 Zrotation Yrotation Xrotation
										JOINT LeftHandMiddle2
										{
											OFFSET -0.000000 4.568727 -0.000000
											CHANNELS 3 Zrotation Yrotation Xrotation
											JOINT LeftHandMiddle3
											{
												OFFSET 0.000000 3.654981 -0.000000
												CHANNELS 3 Zrotation Yrotation Xrotation
												JOINT LeftHandMiddle4
												{
													OFFSET -0.000000 2.741236 -0.000000
													CHANNELS 3 Zrotation Yrotation Xrotation
													End Site
													{
														OFFSET 0.000000 0.000000 0.000000
													}
												}
											}
										}
									}
									JOINT LeftHandRing1
									{
										OFFSET -0.086752 8.921708 -2.267442
										CHANNELS 3 Zrotation Yrotation Xrotation
										JOINT LeftHandRing2
										{
											OFFSET 0.000000 4.061090 0.000000
											CHANNELS 3 Zrotation Yrotation Xrotation
											JOINT LeftHandRing3
											{
												OFFSET -0.000000 3.654981 0.000000
												CHANNELS 3 Zrotation Yrotation Xrotation
												JOINT LeftHandRing4
												{
													OFFSET -0.000000 2.741236 -0.000000
													CHANNELS 3 Zrotation Yrotation Xrotation
													End Site
													{
														OFFSET 0.000000 0.000000 0.000000
													}
												}
											}
										}
									}
									JOINT LeftHandPinky1
									{
										OFFSET 0.173504 7.976997 -4.467199
										CHANNELS 3 Zrotation Yrotation Xrotation
										JOINT LeftHandPinky2
										{
											OFFSET 0.000000 3.350399 0.000000
											CHANNELS 3 Zrotation Yrotation Xrotation
											JOINT LeftHandPinky3
											{
												OFFSET 0.000000 2.842763 0.000000
												CHANNELS 3 Zrotation Yrotation Xrotation
												JOINT LeftHandPinky4
												{
													OFFSET 0.000000 2.639709 0.000000
													CHANNELS 3 Zrotation Yrotation Xrotation
													End Site
													{
														OFFSET 0.000000 0.000000 0.000000
													}
												}
											}
										}
									}
									JOINT LeftForeArmEnd
									{
										OFFSET 0.000000 0.000000 0.000000
										CHANNELS 3 Zrotation Yrotation Xrotation
										End Site
										{
											OFFSET 0.000000 0.000000 0.000000
										}
									}
								}
								JOINT LeftArmEnd
								{
									OFFSET 0.000000 0.000000 0.000000
									CHANNELS 3 Zrotation Yrotation Xrotation
									End Site
									{
										OFFSET 0.000000 0.000000 0.000000
									}
								}
							}
						}
					}
				}
			}
		}
	}
	JOINT RightUpLeg
	{
		OFFSET -11.289943 0.000000 0.000000
		CHANNELS 3 Zrotation Yrotation Xrotation
		JOINT RightLeg
		{
			OFFSET -0.000000 -38.200325 -0.000000
			CHANNELS 3 Zrotation Yrotation Xrotation
			JOINT RightFoot
			{
				OFFSET 0.000000 -39.900856 0.000000
				CHANNELS 3 Zrotation Yrotation Xrotation
				JOINT RightToeBase
				{
					OFFSET -0.000000 -0.000000 15.261641
					CHANNELS 3 Zrotation Yrotation Xrotation
					JOINT RightToeBaseEnd
					{
						OFFSET 0.000000 0.000000 7.370709
						CHANNELS 3 Zrotation Yrotation Xrotation
						End Site
						{
							OFFSET 0.000000 0.000000 0.000000
						}
					}
				}
				JOINT RightLegEnd
				{
					OFFSET 0.000000 0.000000 0.000000
					CHANNELS 3 Zrotation Yrotation Xrotation
					End Site
					{
						OFFSET 0.000000 0.000000 0.000000
					}
				}
			}
			JOINT RightUpLegEnd
			{
				OFFSET 0.000000 0.000000 0.000000
				CHANNELS 3 Zrotation Yrotation Xrotation
				End Site
				{
					OFFSET 0.000000 0.000000 0.000000
				}
			}
		}
	}
	JOINT LeftUpLeg
	{
		OFFSET 11.315661 -0.000000 0.000000
		CHANNELS 3 Zrotation Yrotation Xrotation
		JOINT LeftLeg
		{
			OFFSET -0.000000 -38.200325 -0.000000
			CHANNELS 3 Zrotation Yrotation Xrotation
			JOINT LeftFoot
			{
				OFFSET 0.000000 -39.900856 0.000000
				CHANNELS 3 Zrotation Yrotation Xrotation
				JOINT LeftToeBase
				{
					OFFSET 0.000000 0.000000 15.261641
					CHANNELS 3 Zrotation Yrotation Xrotation
					JOINT LeftToeBaseEnd
					{
						OFFSET -0.000000 0.000000 7.539996
						CHANNELS 3 Zrotation Yrotation Xrotation
						End Site
						{
							OFFSET 0.000000 0.000000 0.000000
						}
					}
				}
				JOINT LeftLegEnd
				{
					OFFSET 0.000000 0.000000 0.000000
					CHANNELS 3 Zrotation Yrotation Xrotation
					End Site
					{
						OFFSET 0.000000 0.000000 0.000000
					}
				}
			}
			JOINT LeftUpLegEnd
			{
				OFFSET 0.000000 0.000000 0.000000
				CHANNELS 3 Zrotation Yrotation Xrotation
				End Site
				{
					OFFSET 0.000000 0.000000 0.000000
				}
			}
		}
	}
}
MOTION
Frames: 4
Frame Time: 0.016667
1.509799 88.125832 7.772354 -3.037975 2.896255 -12.370996 2.028829 -0.098652 6.258702 -2.436989 0.690289 3.657783 1.890283 -2.243882 5.728513 -0.824682 -0.236099 6.588006 7.854257 -5.107184 6.074003 1.615771 -1.109346 -2.856016 0.760722 -1.353658 -20.010649 0.000000 0.000000 0.000000 89.403358 -0.385541 9.226706 64.060463 -11.023281 -5.616724 -0.830302 20.291588 90.144676 -6.723455 4.058277 0.952226 7.393580 -1.505605 41.351810 -0.000003 -0.000014 -18.380598 0.000006 0.000048 -12.703528 0.000002 0.000004 0.000002 -6.292008 0.078448 2.763050 1.294430 -0.068086 0.264623 1.247632 -0.037643 0.272681 -0.000012 0.000031 -0.000002 -5.598661 0.016580 -1.567480 1.013980 -0.034065 0.050812 1.084794 0.000580 0.049819 -0.000023 0.000150 0.000013 -2.648749 -0.052299 -7.729480 1.646209 0.058100 -0.117759 1.877601 0.019230 -0.051340 0.000024 -0.001591 -0.000006 0.567118 -0.105545 -15.804698 2.709887 0.139141 0.022847 2.507912 0.062550 -0.019651 -0.001344 0.000006 -0.000024 0.000000 0.000000 0.000000 0.000000 0.000000 0.000000 -85.610558 0.101034 5.944539 -65.263870 9.429507 -7.824264 0.787066 -13.317498 104.803963 0.074294 4.136583 7.570976 -7.120811 1.332640 41.407257 0.000013 0.000011 -18.067919 -0.000111 -0.000046 -12.516244 -0.001786 0.000002 -0.003872 5.529902 0.132014 5.261552 -2.095120 -0.094163 -0.345783 -2.215676 -0.060417 -0.288990 0.000014 0.000683 0.000004 4.655639 0.038422 -0.051670 -1.799376 -0.039185 -0.119505 -1.552608 -0.016588 -0.074253 0.000239 -0.000016 0.000267 2.264144 -0.010881 -8.558041 -1.414965 0.065518 0.023279 -0.851061 0.004022 0.035531 0.000024 0.000011 -0.000000 0.864253 0.044634 -17.488155 -1.479867 0.112889 0.114102 -1.661111 0.040630 0.157092 0.000098 0.000011 -0.000040 0.000000 0.000000 0.000000 0.000000 0.000000 0.000000 -4.560514 -14.299778 14.107931 -0.208955 -1.032499 9.151402 2.247480 -9.340097 17.703049 -0.730791 1.603102 -18.032097 0.000000 0.000000 0.000000 0.000000 0.000000 0.000000 0.000000 0.000000 0.000000 8.221557 -3.855251 8.341048 0.250146 0.760760 12.515973 -2.331092 1.614751 14.698800 1.200527 -0.711975 -19.381739 0.000000 0.000000 0.000000 0.000000 0.000000 0.000000 0.000000 0.000000 0.000000 
1.482910 88.104446 7.765365 -3.046783 2.947148 -12.353357 1.981635 -0.094802 6.265047 -2.495514 0.694192 3.718536 1.900007 -2.336413 5.598441 -0.809599 -0.275107 6.605022 8.132647 -5.290053 6.124033 1.620396 -1.182318 -2.821122 0.804079 -1.333777 -20.071638 0.000000 0.000000 0.000000 89.364624 -0.368778 9.211838 63.865086 -10.457170 -5.270172 -0.832588 20.443222 90.395012 -6.792153 4.185975 1.155408 7.383146 -1.505660 41.354763 -0.000003 -0.000014 -18.355768 0.000006 0.000048 -12.681460 0.000002 0.000004 0.000002 -6.290409 0.081292 2.880544 1.207197 -0.064775 0.262985 1.152492 -0.034904 0.271153 -0.000012 0.000032 -0.000001 -5.623475 0.017920 -1.477880 0.928564 -0.032983 0.049913 1.003244 0.001561 0.048748 -0.000023 0.000154 0.000013 -2.677468 -0.053206 -7.655669 1.559879 0.056611 -0.116169 1.790084 0.018069 -0.049584 0.000024 -0.001464 -0.000007 0.554071 -0.104959 -15.752483 2.625175 0.134630 0.028855 2.426494 0.058066 -0.014462 -0.001292 0.000007 -0.000025 0.000000 0.000000 0.000000 0.000000 0.000000 0.000000 -85.572876 0.046894 6.052361 -65.427139 9.264490 -7.480217 0.805616 -13.302657 105.435112 -0.277043 3.485543 8.317724 -7.194257 1.342920 41.368576 0.000013 0.000011 -18.276522 -0.000114 -0.000046 -12.661059 -0.001819 0.000003 -0.003861 5.039465 0.133897 5.126405 -2.173768 -0.093145 -0.339506 -2.296085 -0.059447 -0.282336 0.000014 0.000638 0.000004 4.166856 0.038733 -0.172875 -1.891384 -0.038639 -0.117051 -1.647578 -0.016189 -0.071835 0.000217 -0.000015 0.000268 1.764184 -0.012210 -8.640829 -1.554155 0.064893 0.020100 -0.987906 0.003473 0.033476 0.000054 0.000011 -0.000000 0.403812 0.042264 -17.546602 -1.632790 0.112188 0.110394 -1.807492 0.039595 0.152885 0.000044 0.000011 -0.000040 0.000000 0.000000 0.000000 0.000000 0.000000 0.000000 -4.537731 -14.295843 14.015065 -0.208141 -1.025465 9.253606 2.238312 -9.401108 17.658003 -0.720275 1.608821 -18.009752 0.000000 0.000000 0.000000 0.000000 0.000000 0.000000 0.000000 0.000000 0.000000 8.263745 -3.887810 8.251807 0.252204 0.758516 12.597362 -2.358295 1.632100 14.662677 1.207845 -0.711080 -19.356346 0.000000 0.000000 0.000000 0.000000 0.000000 0.000000 0.000000 0.000000 0.000000 
1.451525 88.081703 7.761499 -3.060184 2.983763 -12.345566 1.935263 -0.091950 6.273315 -2.560031 0.700028 3.773413 1.913902 -2.440088 5.466780 -0.793703 -0.319339 6.620624 8.419960 -5.478135 6.178396 1.624621 -1.258824 -2.787062 0.847839 -1.314320 -20.128672 0.000000 0.000000 0.000000 89.320091 -0.349246 9.218668 63.690685 -9.918780 -4.881546 -0.830774 20.589947 90.521935 -6.815645 4.374502 1.281789 7.369523 -1.504944 41.359650 -0.000004 -0.000015 -18.321489 0.000006 0.000047 -12.652604 0.000002 0.000004 0.000002 -6.318183 0.083933 3.004510 1.125756 -0.061396 0.262426 1.063778 -0.032059 0.270541 -0.000012 0.000032 -0.000001 -5.677718 0.019141 -1.383801 0.848373 -0.031876 0.049334 0.926096 0.002570 0.047976 -0.000023 0.000158 0.000013 -2.727849 -0.054107 -7.580101 1.477547 0.055098 -0.114889 1.706100 0.016901 -0.048190 0.000024 -0.001348 -0.000007 0.533444 -0.103781 -15.701090 2.545426 0.129906 0.034278 2.349341 0.053384 -0.009701 -0.001252 0.000007 -0.000026 0.000000 0.000000 0.000000 0.000000 0.000000 0.000000 -85.534904 -0.013492 6.188338 -65.587982 9.098520 -7.066428 0.824564 -13.284828 105.979767 -0.708546 2.739178 9.006099 -7.269947 1.353814 41.328522 0.000013 0.000011 -18.490868 -0.000117 -0.000046 -12.809938 -0.001863 0.000003 -0.003849 4.550173 0.135802 4.980242 -2.261251 -0.091446 -0.330811 -2.386300 -0.057820 -0.273835 0.000015 0.000588 0.000004 3.679827 0.039047 -0.302754 -1.991708 -0.037842 -0.113706 -1.750602 -0.015561 -0.068694 0.000192 -0.000014 0.000267 1.265276 -0.013275 -8.728635 -1.699727 0.063945 0.015657 -1.130539 0.002700 0.030564 0.000077 0.000011 -0.000000 -0.058406 0.041061 -17.608696 -1.788720 0.110638 0.103461 -1.956650 0.037875 0.146389 -0.000004 0.000011 -0.000040 0.000000 0.000000 0.000000 0.000000 0.000000 0.000000 -4.500643 -14.274329 13.929826 -0.207421 -1.017694 9.357720 2.222359 -9.450527 17.600811 -0.708271 1.614140 -17.985250 0.000000 0.000000 0.000000 0.000000 0.000000 0.000000 0.000000 0.000000 0.000000 8.318269 -3.917730 8.171465 0.254704 0.757951 12.687551 -2.392209 1.654331 14.615504 1.217083 -0.710047 -19.328554 0.000000 0.000000 0.000000 0.000000 0.000000 0.000000 0.000000 0.000000 0.000000 
1.414998 88.057564 7.761041 -3.079795 3.004693 -12.344547 1.891249 -0.090054 6.282860 -2.628047 0.707093 3.821871 1.933437 -2.554524 5.333225 -0.775415 -0.368157 6.634852 8.703568 -5.664171 6.232316 1.629014 -1.334009 -2.756590 0.889355 -1.296733 -20.178629 0.000000 0.000000 0.000000 89.266159 -0.326914 9.244120 63.538315 -9.411130 -4.467581 -0.826017 20.725473 90.540543 -6.790758 4.606523 1.330778 7.352466 -1.503464 41.366547 -0.000004 -0.000015 -18.277384 0.000006 0.000047 -12.616803 0.000002 0.000005 0.000002 -6.378633 0.086354 3.127753 1.050189 -0.058187 0.262873 0.981651 -0.029331 0.270773 -0.000012 0.000033 -0.000001 -5.762056 0.020219 -1.291761 0.773305 -0.030832 0.049123 0.853288 0.003522 0.047553 -0.000023 0.000162 0.000013 -2.799692 -0.054985 -7.509430 1.399717 0.053689 -0.113983 1.625925 0.015816 -0.047216 0.000024 -0.001251 -0.000007 0.503544 -0.102185 -15.658230 2.470756 0.125413 0.038889 2.276478 0.048892 -0.005590 -0.001225 0.000007 -0.000026 0.000000 0.000000 0.000000 0.000000 0.000000 0.000000 -85.492447 -0.078638 6.349722 -65.730240 8.955879 -6.600546 0.843828 -13.259147 106.443092 -1.229214 1.922303 9.617457 -7.344906 1.364980 41.288429 0.000013 0.000011 -18.703562 -0.000119 -0.000046 -12.957712 -0.001915 0.000003 -0.003834 4.080834 0.137705 4.826282 -2.350119 -0.089338 -0.320697 -2.478914 -0.055796 -0.264345 0.000015 0.000531 0.000004 3.211780 0.039366 -0.438531 -2.092963 -0.036896 -0.109828 -1.854313 -0.014797 -0.065140 0.000164 -0.000014 0.000267 0.782491 -0.014081 -8.820022 -1.844710 0.062823 0.010458 -1.272249 0.001812 0.027121 0.000090 0.000011 -0.000000 -0.510633 0.040898 -17.675686 -1.942823 0.108617 0.094430 -2.103737 0.035799 0.138324 -0.000046 0.000011 -0.000040 0.000000 0.000000 0.000000 0.000000 0.000000 0.000000 -4.446377 -14.239216 13.849625 -0.206773 -1.009327 9.462887 2.198651 -9.489123 17.534370 -0.694764 1.618782 -17.959305 0.000000 0.000000 0.000000 0.000000 0.000000 0.000000 0.000000 0.000000 0.000000 8.386518 -3.944714 8.097360 0.257633 0.759040 12.786650 -2.432799 1.681189 14.557503 1.228257 -0.709060 -19.297798 0.000000 0.000000 0.000000 0.000000 0.000000 0.000000 0.000000 0.000000 0.000000 
